<?xml version="1.0" standalone="no"?>
<!DOCTYPE svg PUBLIC "-//W3C//DTD SVG 20010904//EN"
 "http://www.w3.org/TR/2001/REC-SVG-20010904/DTD/svg10.dtd">
<svg version="1.0" xmlns="http://www.w3.org/2000/svg"
 width="300.000000pt" height="300.000000pt" viewBox="0 0 300.000000 300.000000"
 preserveAspectRatio="xMidYMid meet">
<metadata>
Created by potrace 1.10, written by Peter Selinger 2001-2011
</metadata>
<g transform="translate(0.000000,300.000000) scale(0.100000,-0.100000)"
fill="currentcolor" stroke="none">
<path d="M1520 2596 c0 -8 6 -16 14 -19 7 -3 16 -22 20 -41 4 -20 12 -36 19
-36 8 0 7 -3 -2 -9 -12 -8 -12 -13 2 -34 12 -19 14 -33 7 -58 -4 -19 -11 -51
-15 -71 -6 -37 -5 -38 24 -38 24 0 29 3 24 17 -4 11 -3 14 5 9 7 -4 12 -1 12
8 0 8 -5 18 -11 22 -8 5 -8 9 1 14 14 9 33 87 24 101 -3 6 5 19 17 30 14 12
25 16 27 9 4 -12 -14 -151 -24 -187 -6 -21 -3 -23 38 -23 51 0 84 25 68 50 -8
13 -10 12 -10 -2 0 -12 -8 -18 -22 -18 -28 0 -54 15 -41 23 5 3 11 32 12 64 1
37 8 65 19 78 9 11 13 17 8 13 -5 -4 -18 -2 -30 4 -11 7 -24 12 -28 13 -3 0
-10 3 -14 8 -4 4 -22 7 -40 7 -30 0 -32 2 -25 27 5 18 14 27 29 28 12 1 22 -2
22 -7 0 -5 4 -7 9 -4 5 3 14 -1 21 -9 7 -8 21 -15 31 -15 11 0 18 -3 18 -7 -3
-19 2 -33 11 -33 24 0 7 39 -27 62 -54 35 -91 40 -115 16 -20 -20 -20 -20 -42
1 -26 24 -36 26 -36 7z m106 -99 c3 -3 3 -19 -1 -34 -6 -27 -7 -27 -21 -9 -18
26 -18 55 1 52 8 -1 17 -5 21 -9z"/>
<path d="M1460 2594 c0 -3 5 -14 11 -25 13 -25 4 -54 -13 -42 -7 4 -33 13 -57
19 -84 22 -157 -24 -134 -84 5 -15 14 -26 19 -26 5 1 23 5 40 8 l30 7 10 -72
c7 -49 7 -72 -1 -74 -5 -2 -31 -6 -58 -10 -43 -6 -48 -4 -57 17 -19 44 -51 93
-72 111 -25 21 -50 23 -42 2 4 -8 11 -15 18 -15 14 0 41 -41 38 -57 -2 -7 4
-13 12 -13 8 0 14 -8 13 -17 0 -10 7 -30 17 -44 l17 -27 51 17 c35 11 53 12
55 5 4 -13 53 -6 53 7 0 5 -4 9 -8 9 -8 0 -9 11 -13 134 l-2 58 -41 -6 c-22
-4 -44 -12 -48 -19 -5 -9 -10 -9 -20 1 -9 9 -9 12 3 12 10 0 11 2 2 8 -20 13
9 45 40 45 15 0 27 4 27 10 0 7 4 7 12 -1 7 -7 24 -12 38 -12 29 0 80 -21 80
-32 0 -5 -18 -8 -40 -8 -36 0 -54 -13 -31 -22 5 -1 12 -19 15 -38 3 -19 11
-61 18 -92 12 -61 13 -62 76 -42 15 4 17 190 2 199 -5 3 -10 18 -10 32 0 26
-29 83 -42 83 -4 0 -8 -3 -8 -6z m42 -188 c1 -35 1 -71 0 -80 -4 -18 -23 -18
-24 -1 0 6 -4 15 -8 20 -5 6 -13 31 -19 55 -11 49 -2 70 29 70 15 0 19 -10 22
-64z"/>
<path d="M1800 2464 c0 -3 9 -17 20 -31 13 -17 18 -33 14 -47 -6 -18 -5 -19
10 -7 21 18 20 33 -5 65 -19 24 -39 34 -39 20z"/>
<path d="M1780 2412 c0 -11 7 -25 16 -33 14 -11 15 -9 12 16 -3 32 -28 47 -28
17z"/>
<path d="M1090 2392 c0 -5 16 -36 35 -68 28 -46 33 -60 21 -62 -9 -2 -28 8
-43 22 -37 35 -55 39 -87 22 -20 -10 -23 -15 -12 -19 8 -3 16 -2 18 3 2 5 18
2 35 -7 18 -8 30 -19 27 -24 -5 -8 9 -13 29 -10 4 0 7 -8 7 -19 0 -11 1 -20 3
-20 1 0 23 8 49 18 l46 17 -24 24 c-13 13 -27 34 -30 47 -3 13 -10 24 -15 24
-4 0 -14 12 -21 27 -13 27 -38 43 -38 25z"/>
<path d="M1785 2300 c-10 -17 2 -27 50 -40 43 -12 66 -35 136 -140 9 -12 11
-13 16 -1 3 7 15 23 27 35 11 11 20 27 18 34 -2 7 8 33 22 58 13 24 23 44 21
44 -11 0 -55 -49 -55 -61 0 -8 -9 -25 -20 -39 l-19 -25 -53 57 c-29 31 -70 63
-92 72 -45 19 -43 19 -51 6z"/>
<path d="M990 2251 c0 -5 12 -19 28 -30 23 -17 25 -22 12 -31 -8 -5 -25 -10
-38 -10 -22 0 -22 -1 -7 -17 16 -15 20 -15 63 6 l47 23 -40 34 c-39 33 -65 43
-65 25z"/>
<path d="M2071 2239 c-11 -19 -11 -21 3 -16 22 9 20 -6 -3 -27 -11 -10 -17
-25 -14 -37 3 -11 0 -19 -6 -19 -7 0 -10 -4 -7 -9 4 -5 -5 -23 -19 -39 l-24
-29 19 -50 c18 -47 22 -72 35 -198 2 -27 10 -91 17 -142 l12 -92 36 37 c79 82
173 130 224 115 11 -3 16 -1 12 5 -4 7 10 15 34 22 22 6 40 15 40 20 0 13 -10
13 -60 -5 -44 -16 -120 -20 -120 -7 0 7 30 17 184 61 37 11 78 29 90 40 42 38
57 32 98 -43 49 -89 66 -142 50 -158 -15 -15 -16 -32 -2 -23 6 3 11 -2 12 -12
4 -48 2 -79 -6 -84 -5 -4 -6 -15 -2 -25 7 -18 8 -18 25 3 21 25 25 94 11 160
-13 55 -86 209 -112 235 -19 19 -20 19 -56 -4 -20 -12 -42 -28 -47 -35 -9 -12
-91 -37 -150 -47 -11 -1 -34 -10 -52 -19 -40 -21 -47 -21 -39 -1 6 16 5 16
-40 -3 -16 -6 -26 39 -11 49 7 4 17 6 23 4 6 -2 17 0 25 5 11 7 12 11 1 18
-16 9 24 29 73 35 17 2 55 13 85 26 30 12 68 23 83 26 15 2 35 8 45 12 45 23
81 22 112 -4 16 -14 30 -34 30 -45 0 -10 6 -19 14 -19 8 0 23 -14 34 -31 10
-17 23 -30 28 -29 5 1 10 -4 13 -11 2 -7 -1 -9 -9 -4 -9 6 -9 3 0 -15 6 -12 9
-24 7 -27 -3 -2 1 -26 8 -51 37 -131 28 -199 -40 -283 -25 -30 -57 -69 -71
-87 -18 -22 -24 -36 -17 -43 7 -7 16 -1 28 18 10 15 36 46 57 68 51 52 80 108
89 170 9 65 -30 257 -61 294 -11 14 -37 47 -56 74 -20 26 -44 52 -54 57 -24
13 -113 13 -105 1 6 -11 -51 -42 -60 -33 -3 3 7 16 21 29 35 30 12 30 -29 0
-34 -26 -122 -62 -174 -72 -40 -8 -134 -81 -127 -99 6 -15 -6 -25 -57 -54
l-37 -21 0 32 c0 68 -11 151 -28 197 -16 46 -16 50 1 86 46 97 59 221 16 153z
m129 -441 c0 -7 -19 -24 -43 -38 -56 -33 -57 -34 -57 -18 0 12 75 67 93 68 4
0 7 -6 7 -12z m38 -21 c-2 -1 -34 -31 -70 -66 -64 -62 -86 -73 -72 -38 9 25
138 131 142 118 2 -7 2 -13 0 -14z"/>
<path d="M730 2233 c0 -5 15 -17 33 -27 17 -10 26 -13 20 -5 -26 27 -12 29 22
4 19 -15 39 -24 45 -20 5 3 13 -1 16 -9 3 -9 12 -16 19 -16 7 0 32 -21 54 -47
23 -25 43 -44 45 -42 2 2 6 16 10 31 5 24 2 29 -26 42 -18 8 -44 22 -58 30
-81 47 -180 80 -180 59z"/>
<path d="M1465 2220 c-10 -15 14 -50 34 -50 18 0 35 42 23 55 -9 9 -51 5 -57
-5z"/>
<path d="M1540 2213 c0 -14 9 -18 42 -18 41 0 58 9 58 30 0 6 -5 3 -10 -5 -6
-10 -10 -11 -10 -2 0 7 -15 12 -40 12 -31 0 -40 -4 -40 -17z"/>
<path d="M1652 2213 c2 -10 11 -17 21 -17 20 2 20 2 7 -53 -10 -41 -74 -136
-118 -177 -21 -18 -22 -18 -53 8 -32 27 -54 40 -206 120 -67 36 -85 41 -94 30
-8 -10 2 -19 51 -44 34 -17 64 -29 67 -26 3 3 14 1 25 -5 11 -6 17 -13 14 -16
-3 -3 18 -17 47 -31 68 -33 99 -58 112 -88 10 -23 13 -20 94 77 79 95 83 104
84 150 0 27 4 49 9 49 4 0 8 9 8 20 0 16 -7 20 -36 20 -28 0 -35 -3 -32 -17z"/>
<path d="M1343 2206 c-66 -9 -69 -11 -53 -36 7 -12 12 -12 22 -2 14 14 84 16
92 3 10 -15 56 -20 56 -5 0 8 -6 11 -17 7 -9 -4 -14 -2 -11 3 3 5 -2 16 -11
24 -13 12 -28 13 -78 6z"/>
<path d="M1745 2151 c-6 -65 -11 -76 -51 -125 -24 -29 -44 -56 -44 -60 0 -5
-18 -27 -39 -49 -22 -23 -48 -53 -59 -67 -11 -14 -22 -23 -24 -20 -74 100
-176 179 -238 185 -20 1 -169 82 -169 91 -1 7 -8 15 -17 18 -11 4 -15 2 -11
-8 4 -9 0 -12 -13 -9 -22 6 -46 -27 -54 -73 -4 -23 -1 -36 14 -49 11 -10 20
-22 20 -27 0 -14 40 -49 50 -43 14 8 50 -13 50 -30 0 -7 -9 -16 -19 -20 -19
-6 -18 -9 12 -65 18 -33 38 -60 45 -60 9 0 11 7 7 19 -6 20 7 33 38 38 12 2
17 -4 17 -21 0 -14 -4 -28 -10 -31 -13 -8 -13 -102 0 -110 5 -3 15 13 21 35 7
23 22 49 34 58 35 27 39 65 10 90 -14 13 -25 16 -27 10 -3 -7 -12 -9 -23 -5
-17 7 -17 9 3 28 29 26 28 31 -2 17 -25 -11 -43 -38 -26 -38 6 0 10 -4 10 -8
0 -5 -16 -8 -36 -8 -43 2 -61 25 -44 57 10 17 8 25 -11 45 -12 13 -28 24 -35
24 -23 0 -64 60 -64 95 0 41 24 64 48 47 10 -7 25 -15 35 -18 9 -4 17 -10 17
-15 0 -5 5 -9 11 -9 7 0 28 -10 48 -22 20 -13 38 -23 41 -24 46 -8 170 -73
170 -89 0 -3 -7 -17 -16 -31 -15 -22 -15 -24 0 -18 9 3 16 1 16 -5 0 -6 -4
-11 -10 -11 -5 0 -10 -9 -10 -20 0 -11 7 -20 15 -20 8 0 15 -7 15 -16 0 -9 -5
-12 -11 -8 -7 4 -10 1 -7 -7 3 -8 11 -13 18 -11 9 2 10 -9 4 -45 -5 -26 -8
-72 -7 -100 2 -33 -2 -53 -8 -53 -7 0 -9 11 -7 25 3 14 1 25 -3 25 -5 0 -9 -6
-9 -14 0 -17 -29 -115 -41 -138 -10 -19 -2 -51 11 -43 5 3 16 31 26 63 9 31
23 64 29 72 7 8 20 54 28 102 15 79 15 89 0 119 -9 17 -18 52 -21 78 l-5 46
41 -44 c26 -27 47 -41 56 -38 18 7 31 -9 15 -18 -19 -13 -49 -96 -49 -138 0
-35 10 -57 62 -132 70 -102 131 -159 187 -176 49 -15 75 -8 130 33 40 31 60
63 103 165 11 28 12 28 16 4 3 -20 -22 -86 -39 -101 -3 -3 -9 -12 -13 -20 -11
-25 -29 -53 -64 -99 -35 -48 -35 -66 -1 -35 24 21 116 154 126 182 4 9 12 22
19 29 9 9 9 24 2 55 -5 24 -10 84 -9 133 0 102 -9 174 -35 260 l-17 60 -24
-54 c-13 -30 -22 -60 -19 -68 3 -8 -1 -16 -8 -19 -27 -10 -25 -32 10 -96 52
-96 58 -129 39 -196 -39 -131 -104 -212 -173 -212 -47 0 -117 44 -166 103 -20
24 -36 47 -36 52 0 4 -13 24 -30 45 -39 50 -41 123 -5 190 13 25 24 41 25 36
0 -5 6 -3 14 3 10 8 16 9 21 1 4 -7 17 -1 37 15 31 26 72 33 84 14 5 -8 9 -8
14 1 12 19 50 2 50 -22 0 -20 -1 -20 -19 -4 -11 10 -25 15 -31 11 -8 -5 -5
-13 9 -26 25 -24 26 -31 5 -77 -9 -21 -24 -54 -33 -74 -9 -21 -22 -38 -29 -38
-21 0 -14 138 9 172 28 39 25 51 -13 43 -18 -4 -40 -13 -48 -20 -8 -6 -23 -15
-32 -18 -19 -7 -48 -68 -48 -102 0 -56 75 -194 106 -195 6 0 17 -7 24 -15 6
-8 15 -13 18 -12 4 1 17 -8 30 -20 12 -13 31 -23 42 -23 31 0 95 65 119 120
27 62 39 140 22 140 -7 0 -11 8 -10 18 2 18 -3 34 -28 90 -17 39 -21 40 -34 5
-7 -20 -5 -42 10 -93 31 -103 7 -209 -52 -229 -36 -13 -99 1 -136 30 -28 22
-72 84 -69 96 2 4 -3 22 -10 40 -17 40 0 145 23 137 7 -3 18 4 25 15 6 12 20
21 30 21 24 0 27 -17 4 -22 -12 -2 -17 -19 -20 -70 -3 -43 -1 -68 6 -68 5 0
10 -4 10 -10 0 -5 -6 -7 -14 -4 -20 8 -10 -28 15 -55 33 -35 29 -39 94 103 20
43 34 85 31 92 -3 8 -2 14 3 14 5 0 25 40 46 89 20 49 48 105 61 125 38 56 32
84 -33 155 -45 48 -66 63 -94 68 l-37 5 -7 -71z m85 22 c0 -5 18 -28 40 -51
40 -43 53 -93 30 -107 -6 -4 -20 -26 -31 -51 -19 -39 -49 -60 -49 -34 0 6 5
10 10 10 17 0 11 46 -9 64 -45 41 -125 -2 -94 -51 13 -19 12 -22 -4 -27 -12
-3 -10 -5 7 -4 53 1 69 -3 85 -18 21 -22 12 -29 -16 -13 -33 17 -81 13 -123
-12 -38 -22 -51 -38 -16 -19 33 18 22 -4 -12 -25 -84 -50 -72 -7 17 60 36 28
47 49 20 39 -24 -10 -17 11 19 59 50 66 66 101 66 147 0 38 2 40 30 40 17 0
30 -3 30 -7z m-26 -183 c8 0 13 -10 12 -22 -1 -19 -7 -23 -30 -21 -28 2 -56
19 -56 33 0 11 30 19 48 14 8 -2 19 -4 26 -4z m183 -195 l4 -80 -30 54 c-34
59 -38 80 -19 99 7 7 8 12 4 12 -5 0 -3 7 5 16 11 14 14 13 23 -3 5 -10 11
-54 13 -98z m-183 74 c16 -14 -2 -23 -18 -10 -8 7 -20 10 -26 6 -6 -4 -23 -4
-38 0 l-27 8 25 7 c27 8 69 2 84 -11z"/>
<path d="M720 2185 c13 -14 27 -25 32 -25 22 0 102 -61 143 -109 35 -41 45
-61 45 -88 0 -33 -1 -34 -28 -28 -59 12 -96 -60 -51 -101 19 -17 22 -18 50 -2
29 17 29 17 30 -10 1 -15 1 -30 0 -34 0 -4 3 -36 8 -70 5 -35 7 -66 4 -71 -2
-4 -25 13 -51 37 -81 76 -171 138 -254 174 -70 30 -81 39 -90 65 -16 44 -71
64 -90 34 -4 -7 -8 -25 -8 -42 0 -22 -12 -42 -45 -74 -25 -25 -45 -50 -45 -55
0 -6 -4 -17 -9 -25 -8 -12 -19 -10 -68 11 -73 33 -124 42 -116 22 3 -9 13 -12
23 -9 10 3 21 2 24 -3 3 -5 32 -22 63 -36 32 -15 66 -31 75 -37 28 -14 30 -12
26 34 -2 28 1 41 8 40 7 -1 15 8 18 20 8 30 50 58 95 64 44 6 108 -19 226 -88
84 -49 236 -194 249 -236 4 -13 12 -23 18 -23 5 0 7 7 4 16 -18 47 -37 206
-40 335 l-4 146 -58 63 c-33 34 -59 66 -59 70 0 5 -4 12 -9 17 -5 5 -6 2 -1
-6 10 -18 -21 -8 -78 25 -54 31 -67 30 -37 -1z m-196 -252 c19 -20 22 -30 14
-40 -17 -20 -45 -15 -52 10 -16 61 -1 73 38 30z m391 -45 c-8 -27 -32 -54 -40
-46 -4 3 -9 20 -11 37 -5 29 -3 31 26 31 28 0 31 -3 25 -22z"/>
<path d="M1208 2183 c-16 -3 -28 -11 -28 -19 0 -19 30 -30 39 -15 4 7 12 11
17 10 20 -3 31 2 31 16 0 15 -7 16 -59 8z"/>
<path d="M1130 2150 c-8 -5 -7 -9 2 -17 15 -11 58 -15 58 -5 0 12 -48 30 -60
22z"/>
<path d="M1010 1926 c0 -14 4 -36 10 -50 5 -14 12 -85 14 -158 7 -164 14 -222
32 -256 8 -15 14 -32 14 -37 0 -6 10 -15 23 -20 12 -6 22 -18 22 -27 0 -10 9
-24 20 -32 15 -12 17 -18 7 -24 -9 -6 -7 -13 9 -28 l22 -19 -5 41 c-5 35 -36
95 -59 114 -17 14 -41 78 -44 119 -12 146 -15 251 -8 251 4 0 23 -26 41 -57
29 -50 33 -65 35 -143 2 -80 4 -90 32 -124 17 -21 35 -47 41 -57 6 -11 15 -23
19 -27 5 -4 5 -2 1 5 -8 15 14 29 23 15 3 -6 24 -12 45 -14 32 -2 43 -9 56
-32 9 -16 21 -31 27 -33 7 -3 2 14 -10 36 -23 42 -27 45 -89 56 -85 14 -129
88 -118 195 4 36 4 67 1 70 -3 3 -12 16 -20 30 -100 173 -133 230 -137 230 -2
0 -4 -11 -4 -24z"/>
<path d="M1330 1839 c17 -17 34 -29 37 -26 11 12 -27 57 -48 57 -18 0 -17 -3
11 -31z"/>
<path d="M495 1757 c-7 -18 -15 -46 -17 -63 -3 -25 1 -29 22 -32 42 -4 100
-25 100 -35 0 -6 5 -6 13 0 16 14 49 13 66 -1 12 -9 12 -8 2 12 -8 16 -21 22
-45 22 -19 0 -47 7 -62 15 -16 8 -37 15 -46 15 -20 0 -23 22 -8 50 12 23 20
21 160 -48 116 -56 196 -129 186 -167 -4 -17 -2 -25 7 -25 18 0 105 -81 107
-100 4 -29 0 -40 -16 -40 -18 0 -46 25 -37 34 4 3 1 6 -5 6 -7 0 -12 6 -12 13
0 15 -59 72 -66 64 -4 -3 12 -32 35 -64 40 -57 50 -83 33 -83 -5 0 -22 -13
-38 -29 -22 -23 -33 -27 -46 -20 -15 8 -20 5 -29 -17 -5 -15 -8 -33 -5 -40 3
-8 -3 -18 -12 -23 -9 -6 -12 -11 -7 -11 6 -1 1 -5 -10 -10 -18 -8 -17 -9 7 -9
17 -1 28 5 31 17 3 9 3 -11 1 -45 -2 -39 1 -65 8 -69 8 -5 9 2 5 25 -4 17 -3
40 2 49 5 9 21 43 36 75 17 36 40 67 63 84 58 42 101 87 102 103 0 9 -29 45
-66 80 -36 36 -74 80 -86 98 -20 33 -99 96 -148 119 -137 64 -182 83 -195 83
-9 0 -22 -15 -30 -33z"/>
<path d="M159 1769 c-12 -7 -12 -9 2 -9 9 0 28 -13 42 -30 15 -16 56 -43 91
-59 l65 -29 -5 -39 c-3 -21 -10 -54 -15 -73 -5 -19 -5 -37 0 -40 11 -7 1 -70
-11 -70 -6 0 -8 14 -6 30 3 17 1 30 -4 30 -4 0 -8 -15 -8 -34 0 -18 -4 -57
-10 -85 -14 -74 2 -133 50 -191 55 -65 89 -80 169 -73 50 5 74 13 114 40 28
19 64 37 79 40 34 7 37 10 43 62 l5 41 -27 -12 c-16 -7 -53 -27 -83 -45 -30
-18 -59 -33 -63 -33 -4 0 -17 9 -29 20 -12 11 -31 20 -43 20 -11 0 -31 7 -43
16 -20 14 -22 24 -22 102 0 48 8 122 17 165 16 77 17 78 42 71 38 -11 123 -12
149 -3 28 10 28 25 1 32 -16 4 -18 3 -8 -9 9 -11 8 -14 -4 -14 -9 0 -19 5 -23
11 -4 8 -9 7 -14 -2 -7 -10 -16 -10 -48 -1 -22 7 -47 9 -56 6 -11 -4 -16 -1
-16 10 0 9 -6 16 -14 16 -21 0 -73 -258 -54 -271 5 -3 7 -12 4 -20 -17 -55
-16 -68 13 -99 22 -25 40 -33 77 -38 43 -4 45 -6 29 -18 -17 -13 -15 -14 22
-14 38 0 40 -1 35 -26 -5 -25 -7 -26 -54 -20 -34 5 -48 4 -43 -4 9 -14 -27
-13 -66 4 -33 14 -82 66 -107 113 -19 35 -15 123 8 166 13 24 22 66 26 115 3
42 11 87 17 100 6 14 7 26 1 31 -24 22 -127 70 -136 65 -6 -4 -8 -2 -4 4 3 6
-3 13 -14 17 -11 3 -20 10 -20 15 0 16 -35 29 -51 19z m581 -540 c0 -15 -107
-62 -122 -53 -8 5 9 18 47 36 66 31 75 33 75 17z"/>
<path d="M1346 1718 c-9 -12 -16 -30 -16 -40 0 -10 -4 -18 -10 -18 -14 0 -45
-71 -34 -78 5 -4 9 -13 9 -21 0 -27 25 -23 36 6 15 35 17 56 5 65 -6 3 -3 16
6 30 15 24 32 78 24 78 -3 0 -12 -10 -20 -22z"/>
<path d="M2430 1731 c0 -6 -13 -11 -30 -11 -16 0 -30 -4 -30 -9 0 -8 -49 -24
-65 -22 -11 2 -70 -33 -82 -48 -11 -14 -12 -14 -13 -1 -1 19 -70 -57 -70 -77
0 -8 -4 -12 -9 -9 -4 3 -16 -3 -26 -14 -16 -18 -16 -21 9 -66 14 -25 26 -53
26 -61 0 -19 30 -84 47 -101 12 -12 33 -75 33 -99 0 -22 -31 -43 -64 -43 -22
0 -40 -8 -57 -26 -13 -14 -23 -29 -21 -32 1 -4 -13 -8 -33 -10 -19 -2 -35 -7
-35 -12 0 -5 -26 -12 -59 -16 -51 -5 -58 -9 -54 -25 6 -23 4 -23 70 -1 29 9
53 23 53 30 0 6 5 12 10 12 6 0 10 -4 10 -10 0 -5 7 -10 16 -10 13 0 64 -94
64 -119 0 -29 -129 -113 -193 -126 -63 -13 -62 -12 -63 -67 0 -29 -4 -72 -8
-95 -5 -27 -4 -43 2 -43 14 0 30 48 36 109 3 30 7 55 8 56 2 1 26 10 53 20 68
25 162 90 178 123 14 28 12 60 -4 76 -16 17 -10 36 12 36 12 0 30 10 40 22 20
22 14 41 -21 62 -22 14 46 35 92 29 42 -6 68 9 68 38 0 25 -37 58 -59 52 -13
-3 -21 3 -29 24 -5 15 -13 35 -17 44 -4 12 1 18 25 22 63 13 41 66 -33 76 -37
6 -41 9 -60 58 l-19 52 36 44 c32 40 125 97 157 97 7 0 26 11 44 24 17 13 45
26 61 28 16 1 28 7 27 13 -2 14 -23 19 -23 6z m-189 -352 c28 -15 14 -29 -24
-23 -49 9 -59 13 -52 24 8 13 51 13 76 -1z m55 -176 c20 -27 17 -33 -16 -33
-34 0 -52 26 -29 41 21 13 30 11 45 -8z m-136 -103 c13 -8 13 -11 -2 -26 -18
-18 -32 -13 -48 17 -9 16 -7 19 12 19 13 0 30 -5 38 -10z"/>
<path d="M1807 1662 c-9 -24 -17 -49 -17 -58 0 -8 -4 -12 -10 -9 -5 3 -10 1
-10 -5 0 -7 -9 -25 -21 -41 -11 -16 -19 -29 -17 -30 19 -5 57 -6 70 -3 23 7
37 59 27 101 -4 19 -3 30 2 27 11 -6 11 13 0 40 -6 16 -10 13 -24 -22z"/>
<path d="M2637 1673 c-7 -13 -26 -104 -35 -162 -10 -75 -41 -94 -153 -92 -54
1 -88 -3 -109 -14 -29 -15 -40 -35 -20 -35 6 0 10 -7 10 -15 0 -8 7 -15 15
-15 8 0 30 -8 48 -19 23 -13 39 -16 50 -10 10 6 18 5 22 -1 7 -12 75 -14 75
-2 0 5 10 14 23 20 l22 11 -23 0 c-12 1 -31 -4 -42 -11 -15 -10 -22 -9 -38 6
-17 15 -23 16 -42 4 -18 -10 -24 -10 -27 0 -3 6 -16 12 -29 12 -14 0 -22 4
-19 10 3 6 -3 10 -14 10 -12 0 -21 4 -21 9 0 17 36 22 122 15 84 -6 89 -5 131
22 30 18 45 34 44 48 0 12 3 48 7 81 5 33 7 73 7 89 -1 16 4 33 11 38 9 5 10
8 1 8 -6 0 -14 -3 -16 -7z"/>
<path d="M1224 1590 c8 -43 26 -64 26 -29 0 13 -8 33 -17 44 -15 19 -15 18 -9
-15z"/>
<path d="M673 1558 c2 -7 12 -12 22 -10 25 5 32 -11 28 -68 -3 -51 10 -68 21
-27 12 44 6 82 -14 100 -24 20 -64 23 -57 5z"/>
<path d="M646 1498 c4 -26 16 -53 31 -68 24 -24 25 -24 14 -2 -7 13 -15 41
-19 64 -10 59 -35 64 -26 6z"/>
<path d="M2040 1465 c0 -6 -16 -34 -35 -64 -19 -29 -35 -60 -35 -69 0 -15 -2
-15 -10 -2 -9 13 -10 13 -10 0 -1 -8 -14 -26 -30 -40 -17 -13 -30 -30 -30 -37
0 -15 -26 -17 -35 -3 -4 7 -14 5 -28 -5 -30 -21 -179 -21 -197 0 -18 21 -41
19 -79 -9 -25 -19 -51 -26 -109 -31 -43 -4 -87 -8 -98 -10 -12 -2 -36 5 -53
16 -42 26 -45 24 -24 -11 17 -29 19 -30 93 -29 88 1 232 22 210 31 -12 6 -10
11 10 28 23 20 25 21 37 4 7 -10 13 -23 13 -28 0 -7 32 -10 92 -8 81 3 95 6
110 25 9 12 20 19 24 15 4 -4 1 -15 -7 -24 -13 -16 -11 -17 26 -11 22 4 97 10
168 13 70 4 127 10 127 14 0 21 -54 138 -74 159 -13 15 -31 40 -39 56 -9 17
-16 25 -17 20z m21 -75 c38 -21 74 -120 49 -135 -5 -3 -56 -8 -112 -11 l-103
-6 43 37 c23 20 54 57 68 81 29 49 28 48 55 34z"/>
<path d="M1047 1364 c-15 -42 -87 -124 -111 -124 -14 0 -4 26 22 54 l27 29
-34 -23 c-33 -23 -91 -103 -91 -126 0 -6 -7 -24 -15 -40 -8 -15 -13 -30 -11
-32 4 -3 92 18 161 38 l30 9 -32 -5 c-43 -7 -42 2 3 21 42 17 188 21 228 5 29
-10 31 -8 16 20 -9 17 -21 18 -113 15 -99 -3 -139 -13 -220 -57 -11 -5 -22 -7
-25 -3 -10 10 32 80 48 81 36 1 109 57 121 93 3 7 22 -4 48 -28 47 -43 56 -47
66 -31 3 6 2 10 -4 10 -10 0 -47 37 -88 89 -19 23 -20 23 -26 5z"/>
<path d="M2608 1352 c-10 -2 -18 -10 -18 -18 0 -8 -7 -17 -15 -20 -8 -4 -15
-14 -15 -23 0 -10 3 -12 8 -5 4 6 17 14 28 18 12 4 24 16 28 28 6 26 6 25 -16
20z"/>
<path d="M715 1317 c-77 -45 -138 -91 -127 -95 7 -2 41 15 77 37 35 23 71 41
79 41 8 0 16 6 19 13 3 9 12 8 35 -4 38 -22 63 -9 28 14 -34 23 -64 21 -111
-6z"/>
<path d="M1878 1163 c-33 -5 -34 -7 -9 -32 16 -16 32 -19 75 -18 54 2 56 3 56
30 0 26 -2 27 -47 26 -27 -1 -60 -4 -75 -6z"/>
<path d="M2020 1163 c0 -5 4 -14 9 -21 7 -12 14 -11 40 2 17 9 31 19 31 21 0
3 -18 5 -40 5 -22 0 -40 -3 -40 -7z"/>
<path d="M1682 1133 c0 -10 -1 -25 -3 -33 -3 -12 6 -14 55 -12 32 2 70 8 83
13 25 9 25 10 8 29 -25 28 -144 30 -143 3z"/>
<path d="M1483 1133 c-29 -2 -53 -8 -53 -14 0 -5 4 -9 10 -9 15 0 50 -33 50
-48 0 -8 7 -11 18 -8 9 3 42 8 73 11 55 7 55 7 55 41 l-1 34 -50 -2 c-27 -1
-74 -3 -102 -5z m107 -34 c0 -5 -11 -9 -24 -9 -13 0 -31 -3 -40 -6 -9 -3 -16
-1 -16 4 0 10 16 14 63 19 9 1 17 -2 17 -8z"/>
<path d="M1257 1122 c-31 -3 -36 -6 -28 -20 4 -9 6 -26 4 -37 -12 -58 -11 -66
5 -61 10 3 29 8 43 11 24 6 26 11 23 43 -4 45 11 66 36 52 11 -6 17 -18 15
-28 -2 -9 -4 -21 -5 -27 -8 -36 9 -39 79 -13 22 8 22 9 7 33 -9 13 -16 31 -16
40 0 12 -12 15 -55 15 -37 0 -55 -4 -55 -12 0 -8 -3 -9 -8 -3 -4 6 -24 9 -45
7z"/>
<path d="M1104 1105 c-4 -9 -4 -19 0 -22 3 -4 6 -1 6 6 0 7 4 10 10 6 5 -3 7
-12 3 -20 -3 -8 0 -15 7 -15 9 0 10 -11 6 -35 -7 -36 -5 -38 30 -29 18 5 21
13 20 62 l-1 57 -38 3 c-27 2 -39 -1 -43 -13z"/>
<path d="M985 1090 c-27 -10 -74 -19 -102 -19 -52 -1 -69 -13 -37 -25 28 -11
94 -6 122 8 40 20 75 26 91 17 21 -13 5 -60 -24 -71 -29 -11 -34 -32 -7 -29
31 3 43 -1 37 -11 -3 -5 -15 -10 -26 -10 -10 0 -19 -4 -19 -10 0 -5 12 -10 28
-10 22 0 30 -8 45 -39 19 -43 22 -61 7 -61 -5 0 -10 -4 -10 -10 0 -5 10 -9 21
-7 12 1 24 -4 26 -10 3 -8 -3 -13 -14 -13 -11 0 -24 -5 -31 -12 -9 -9 -12 -8
-12 4 0 17 -53 43 -69 34 -6 -4 -22 1 -37 10 -23 16 -26 16 -23 2 6 -24 128
-148 146 -148 14 0 14 3 -2 20 -10 11 -16 21 -14 23 2 1 12 9 21 16 16 12 19
10 28 -15 9 -23 13 -25 21 -14 8 13 13 11 30 -10 15 -17 29 -24 48 -22 40 5
44 16 19 48 -13 16 -32 42 -41 57 -14 21 -23 27 -40 22 -17 -5 -18 -4 -7 4 12
8 8 18 -22 63 -20 29 -41 65 -47 80 -12 31 -4 89 13 100 8 5 7 8 -1 8 -7 0
-13 11 -13 25 0 21 -5 25 -27 24 -16 0 -50 -9 -78 -19z m63 -315 c29 -46 28
-66 -2 -35 -25 26 -43 70 -29 70 4 0 18 -16 31 -35z m143 -16 c30 -32 36 -49
19 -49 -5 0 -10 4 -10 8 0 5 -16 14 -35 22 -33 13 -43 28 -28 43 12 13 25 7
54 -24z"/>
<path d="M1815 1050 c-4 -7 -24 -8 -52 -4 -44 6 -46 6 -40 -16 3 -13 1 -32 -5
-43 -5 -11 -6 -18 -1 -15 41 20 64 27 104 33 42 5 46 8 41 30 -4 26 -35 35
-47 15z"/>
<path d="M2019 1048 c-1 -7 -1 -17 0 -22 1 -5 -4 -5 -11 1 -7 5 -24 7 -38 2
-17 -5 -19 -7 -7 -8 27 -1 10 -21 -19 -21 -23 0 -35 -24 -15 -32 13 -4 1 -60
-13 -55 -6 2 -15 18 -21 35 -8 29 -25 44 -25 23 0 -5 -19 -12 -43 -15 -23 -4
-55 -13 -71 -21 -33 -18 -39 -19 -31 -5 3 6 1 10 -4 10 -15 0 -14 -33 3 -55
15 -20 11 -51 -8 -58 -7 -3 -19 15 -29 44 -19 52 -30 58 -61 34 -11 -8 -40
-15 -64 -15 -41 0 -43 -1 -35 -22 4 -13 8 -39 8 -59 -1 -33 1 -36 26 -33 41 5
179 45 224 64 78 35 149 60 186 66 21 4 40 13 43 20 3 8 17 14 31 14 29 0 31
5 9 28 -12 11 -13 17 -5 20 9 3 9 8 0 19 -10 11 -10 16 0 23 8 4 10 13 7 19
-10 15 -36 14 -37 -1z m5 -47 c9 -14 -5 -41 -21 -41 -8 0 -13 -8 -11 -17 2
-11 -5 -19 -17 -21 -16 -3 -17 -1 -8 8 9 10 9 17 0 32 -10 16 -9 22 7 34 23
16 42 18 50 5z m-144 -79 c0 -11 -32 -27 -88 -47 l-43 -15 3 28 c2 21 10 28
33 33 45 10 95 10 95 1z m-222 -54 c21 -21 13 -36 -20 -44 -18 -4 -36 -7 -40
-6 -5 1 -8 -2 -8 -8 0 -5 -7 -10 -16 -10 -10 0 -14 6 -11 14 3 7 1 18 -5 24
-8 8 -4 14 13 20 13 5 31 12 39 15 24 9 35 8 48 -5z"/>
<path d="M1665 1029 c-11 -4 -47 -8 -80 -8 -74 -2 -95 -12 -78 -40 6 -10 9
-28 7 -38 -6 -20 -4 -20 78 2 59 16 83 26 83 38 0 8 8 24 18 34 19 21 7 26
-28 12z m-61 -50 c-27 -11 -64 -11 -64 0 0 12 37 18 64 12 20 -4 20 -4 0 -12z"/>
<path d="M1439 1005 c-3 -2 -38 -9 -79 -16 -41 -6 -79 -15 -84 -20 -13 -12
-29 -12 -21 1 5 9 -36 6 -73 -6 -7 -2 -22 0 -31 6 -15 8 -18 5 -17 -13 1 -12
11 -26 23 -32 12 -5 24 -20 27 -35 10 -48 18 -52 69 -39 49 12 56 19 33 38
-10 9 -16 8 -26 -4 -17 -21 -37 -19 -45 5 -3 11 -11 20 -16 20 -11 0 -12 30
-1 31 31 3 89 10 154 20 82 13 99 9 82 -19 -16 -25 -72 -38 -96 -23 -27 17
-32 9 -9 -17 23 -27 33 -27 96 -3 31 12 49 25 46 33 -2 7 -3 28 -3 46 1 28
-14 43 -29 27z"/>
<path d="M1440 865 c-19 -7 -45 -14 -58 -14 -26 -1 -25 -9 6 -88 18 -44 43
-52 76 -22 8 8 22 20 31 27 10 9 13 21 9 34 -7 24 -12 48 -13 66 -1 15 -6 14
-51 -3z m34 -41 c10 -26 7 -33 -20 -51 -25 -16 -27 -16 -40 2 -23 31 -17 53
14 58 15 2 30 5 33 6 4 0 10 -6 13 -15z"/>
<path d="M1258 822 c-16 -2 -28 -7 -28 -12 0 -5 12 -18 28 -30 15 -12 26 -24
25 -26 -2 -2 0 -13 3 -25 4 -15 9 -18 17 -10 13 13 37 15 37 3 0 -5 -12 -13
-27 -20 -27 -11 -27 -11 11 -7 21 2 41 7 44 9 3 3 -9 33 -25 67 -19 38 -33 57
-38 49 -4 -7 -10 -8 -14 -4 -3 5 -18 8 -33 6z"/>
<path d="M917 804 c-3 -5 0 -19 6 -31 13 -22 93 -93 107 -93 4 0 30 -22 58
-48 78 -75 160 -91 235 -48 23 14 56 27 72 30 88 15 87 15 260 72 44 15 93 30
108 35 l28 8 -6 -42 c-5 -34 -3 -48 13 -67 11 -14 24 -21 28 -17 5 4 2 12 -5
16 -7 5 -15 23 -17 40 -3 22 0 30 8 25 8 -5 9 -2 5 10 -4 10 -4 23 0 29 4 7
13 26 19 44 10 27 9 30 -5 25 -9 -3 -29 -14 -44 -25 -34 -23 -273 -102 -359
-118 -35 -6 -71 -15 -80 -20 -10 -5 -25 -9 -33 -9 -8 0 -15 -6 -15 -14 0 -20
-56 -28 -104 -15 -22 6 -57 25 -77 43 -19 17 -68 58 -108 90 -39 33 -76 66
-80 74 -5 8 -11 11 -14 6z"/>
</g>
</svg>
